<?xml version="1.0" encoding="UTF-8"?>
<svg id="Calque_1" data-name="Calque 1" xmlns="http://www.w3.org/2000/svg" viewBox="0 0 144.31 117.28">
  <defs>
    <style>
      .cls-1 {
        fill: #1d9bf0;
      }
    </style>
  </defs>
  <path class="cls-1" d="M129.54,29.2c.09,1.27.09,2.55.09,3.83,0,39.12-29.79,84.25-84.25,84.25v-.02c-16.09.02-31.84-4.59-45.38-13.27,2.34.28,4.68.43,7.05.43,13.33,0,26.29-4.46,36.77-12.7-12.67-.24-23.78-8.5-27.67-20.57,4.44.85,9.01.68,13.37-.51-13.81-2.79-23.75-14.93-23.75-29.02v-.38c4.11,2.29,8.72,3.56,13.44,3.71C6.21,36.24,2.2,18.93,10.05,5.4c15.03,18.49,37.21,29.74,61.02,30.94-2.39-10.28.88-21.06,8.56-28.29,11.93-11.21,30.68-10.64,41.89,1.28,6.64-1.31,12.99-3.75,18.8-7.19-2.21,6.86-6.83,12.67-13.02,16.37,5.87-.7,11.6-2.27,17.01-4.66-3.98,5.95-8.98,11.15-14.77,15.33h0Z"/>
</svg>