<?xml version="1.0" encoding="UTF-8"?>
<svg id="Calque_1" data-name="Calque 1" xmlns="http://www.w3.org/2000/svg" viewBox="0 0 144 144">
  <defs>
    <style>
      .cls-1 {
        fill: #fff;
      }

      .cls-2 {
        fill: #1d9bf0;
      }
    </style>
  </defs>
  <rect class="cls-1" width="144" height="144"/>
  <path class="cls-2" d="M119.04,47.87c.07,1.04.07,2.09.07,3.14,0,32.07-24.42,69.06-69.06,69.06v-.02c-13.19.02-26.1-3.76-37.2-10.88,1.92.23,3.84.35,5.78.35,10.93,0,21.55-3.66,30.14-10.41-10.39-.2-19.49-6.97-22.68-16.86,3.64.7,7.39.56,10.96-.42-11.32-2.29-19.47-12.24-19.47-23.79v-.31c3.37,1.88,7.15,2.92,11.02,3.04-10.66-7.13-13.95-21.32-7.51-32.41,12.32,15.16,30.5,24.38,50.02,25.36-1.96-8.43.72-17.26,7.02-23.19,9.78-9.19,25.15-8.72,34.34,1.05,5.44-1.07,10.65-3.07,15.41-5.89-1.81,5.62-5.6,10.39-10.67,13.42,4.81-.57,9.51-1.86,13.94-3.82-3.26,4.88-7.36,9.14-12.11,12.57h0Z"/>
</svg>